<svg xmlns="http://www.w3.org/2000/svg" viewBox="0 0 1440 320"><path fill="#020202" fill-opacity="1" d="M0,96L30,128C60,160,120,224,180,213.3C240,203,300,117,360,117.3C420,117,480,203,540,213.3C600,224,660,160,720,154.7C780,149,840,203,900,202.7C960,203,1020,149,1080,117.3C1140,85,1200,75,1260,69.3C1320,64,1380,64,1410,64L1440,64L1440,0L1410,0C1380,0,1320,0,1260,0C1200,0,1140,0,1080,0C1020,0,960,0,900,0C840,0,780,0,720,0C660,0,600,0,540,0C480,0,420,0,360,0C300,0,240,0,180,0C120,0,60,0,30,0L0,0Z" style="--darkreader-inline-fill:#020202;" data-darkreader-inline-fill=""></path></svg>
