<svg xmlns="http://www.w3.org/2000/svg" viewBox="0 0 1440 320"><path fill="#050505" fill-opacity="1" d="M0,224L6.2,202.7C12.3,181,25,139,37,122.7C49.2,107,62,117,74,138.7C86.2,160,98,192,111,170.7C123.1,149,135,75,148,85.3C160,96,172,192,185,218.7C196.9,245,209,203,222,186.7C233.8,171,246,181,258,181.3C270.8,181,283,171,295,160C307.7,149,320,139,332,165.3C344.6,192,357,256,369,277.3C381.5,299,394,277,406,261.3C418.5,245,431,235,443,213.3C455.4,192,468,160,480,138.7C492.3,117,505,107,517,101.3C529.2,96,542,96,554,96C566.2,96,578,96,591,106.7C603.1,117,615,139,628,170.7C640,203,652,245,665,234.7C676.9,224,689,160,702,160C713.8,160,726,224,738,229.3C750.8,235,763,181,775,154.7C787.7,128,800,128,812,106.7C824.6,85,837,43,849,42.7C861.5,43,874,85,886,85.3C898.5,85,911,43,923,48C935.4,53,948,107,960,160C972.3,213,985,267,997,272C1009.2,277,1022,235,1034,202.7C1046.2,171,1058,149,1071,170.7C1083.1,192,1095,256,1108,277.3C1120,299,1132,277,1145,240C1156.9,203,1169,149,1182,138.7C1193.8,128,1206,160,1218,165.3C1230.8,171,1243,149,1255,170.7C1267.7,192,1280,256,1292,272C1304.6,288,1317,256,1329,234.7C1341.5,213,1354,203,1366,192C1378.5,181,1391,171,1403,154.7C1415.4,139,1428,117,1434,106.7L1440,96L1440,0L1433.8,0C1427.7,0,1415,0,1403,0C1390.8,0,1378,0,1366,0C1353.8,0,1342,0,1329,0C1316.9,0,1305,0,1292,0C1280,0,1268,0,1255,0C1243.1,0,1231,0,1218,0C1206.2,0,1194,0,1182,0C1169.2,0,1157,0,1145,0C1132.3,0,1120,0,1108,0C1095.4,0,1083,0,1071,0C1058.5,0,1046,0,1034,0C1021.5,0,1009,0,997,0C984.6,0,972,0,960,0C947.7,0,935,0,923,0C910.8,0,898,0,886,0C873.8,0,862,0,849,0C836.9,0,825,0,812,0C800,0,788,0,775,0C763.1,0,751,0,738,0C726.2,0,714,0,702,0C689.2,0,677,0,665,0C652.3,0,640,0,628,0C615.4,0,603,0,591,0C578.5,0,566,0,554,0C541.5,0,529,0,517,0C504.6,0,492,0,480,0C467.7,0,455,0,443,0C430.8,0,418,0,406,0C393.8,0,382,0,369,0C356.9,0,345,0,332,0C320,0,308,0,295,0C283.1,0,271,0,258,0C246.2,0,234,0,222,0C209.2,0,197,0,185,0C172.3,0,160,0,148,0C135.4,0,123,0,111,0C98.5,0,86,0,74,0C61.5,0,49,0,37,0C24.6,0,12,0,6,0L0,0Z" data-darkreader-inline-fill="" style="--darkreader-inline-fill:#007acc;"></path></svg>
